<svg width="84" height="17" viewBox="0 0 84 17" fill="none" xmlns="http://www.w3.org/2000/svg">
<path d="M2.25586 16V6.83008H0.585938V5.43359H2.25586V4.34961C2.25586 3.2168 2.55859 2.34115 3.16406 1.72266C3.76953 1.10417 4.62565 0.794922 5.73242 0.794922C6.14909 0.794922 6.5625 0.85026 6.97266 0.960938L6.875 2.42578C6.56901 2.36719 6.24349 2.33789 5.89844 2.33789C5.3125 2.33789 4.86003 2.51042 4.54102 2.85547C4.22201 3.19401 4.0625 3.68229 4.0625 4.32031V5.43359H6.31836V6.83008H4.0625V16H2.25586ZM14.8438 16C14.7396 15.7917 14.6549 15.4206 14.5898 14.8867C13.75 15.7591 12.7474 16.1953 11.582 16.1953C10.5404 16.1953 9.68424 15.9023 9.01367 15.3164C8.34961 14.724 8.01758 13.9753 8.01758 13.0703C8.01758 11.9701 8.43424 11.1172 9.26758 10.5117C10.1074 9.89974 11.2858 9.59375 12.8027 9.59375H14.5605V8.76367C14.5605 8.13216 14.3717 7.63086 13.9941 7.25977C13.6165 6.88216 13.0599 6.69336 12.3242 6.69336C11.6797 6.69336 11.1393 6.85612 10.7031 7.18164C10.2669 7.50716 10.0488 7.90104 10.0488 8.36328H8.23242C8.23242 7.83594 8.41797 7.32812 8.78906 6.83984C9.16667 6.34505 9.67448 5.95443 10.3125 5.66797C10.957 5.38151 11.6634 5.23828 12.4316 5.23828C13.6491 5.23828 14.6029 5.54427 15.293 6.15625C15.9831 6.76172 16.3411 7.59831 16.3672 8.66602V13.5293C16.3672 14.4993 16.4909 15.2708 16.7383 15.8438V16H14.8438ZM11.8457 14.623C12.4121 14.623 12.9492 14.4766 13.457 14.1836C13.9648 13.8906 14.3327 13.5098 14.5605 13.041V10.873H13.1445C10.931 10.873 9.82422 11.5208 9.82422 12.8164C9.82422 13.3828 10.013 13.8255 10.3906 14.1445C10.7682 14.4635 11.2533 14.623 11.8457 14.623ZM23.4375 14.7207C24.082 14.7207 24.6452 14.5254 25.127 14.1348C25.6087 13.7441 25.8757 13.2559 25.9277 12.6699H27.6367C27.6042 13.2754 27.3958 13.8516 27.0117 14.3984C26.6276 14.9453 26.1133 15.3815 25.4688 15.707C24.8307 16.0326 24.1536 16.1953 23.4375 16.1953C21.9987 16.1953 20.8529 15.7168 20 14.7598C19.1536 13.7962 18.7305 12.4811 18.7305 10.8145V10.5117C18.7305 9.48307 18.9193 8.56836 19.2969 7.76758C19.6745 6.9668 20.2148 6.34505 20.918 5.90234C21.6276 5.45964 22.4642 5.23828 23.4277 5.23828C24.6126 5.23828 25.5957 5.5931 26.377 6.30273C27.1647 7.01237 27.5846 7.93359 27.6367 9.06641H25.9277C25.8757 8.38281 25.6152 7.82292 25.1465 7.38672C24.6842 6.94401 24.1113 6.72266 23.4277 6.72266C22.5098 6.72266 21.7969 7.05469 21.2891 7.71875C20.7878 8.3763 20.5371 9.33008 20.5371 10.5801V10.9219C20.5371 12.1393 20.7878 13.0768 21.2891 13.7344C21.7904 14.3919 22.5065 14.7207 23.4375 14.7207ZM34.0527 16.1953C32.6204 16.1953 31.4551 15.7266 30.5566 14.7891C29.6582 13.8451 29.209 12.5853 29.209 11.0098V10.6777C29.209 9.62956 29.4076 8.69531 29.8047 7.875C30.2083 7.04818 30.7682 6.40365 31.4844 5.94141C32.207 5.47266 32.9883 5.23828 33.8281 5.23828C35.2018 5.23828 36.2695 5.69076 37.0312 6.5957C37.793 7.50065 38.1738 8.79622 38.1738 10.4824V11.2344H31.0156C31.0417 12.276 31.3444 13.1191 31.9238 13.7637C32.5098 14.4017 33.252 14.7207 34.1504 14.7207C34.7884 14.7207 35.3288 14.5905 35.7715 14.3301C36.2142 14.0697 36.6016 13.7246 36.9336 13.2949L38.0371 14.1543C37.1517 15.515 35.8236 16.1953 34.0527 16.1953ZM33.8281 6.72266C33.099 6.72266 32.487 6.98958 31.9922 7.52344C31.4974 8.05078 31.1914 8.79297 31.0742 9.75H36.3672V9.61328C36.3151 8.69531 36.0677 7.98568 35.625 7.48438C35.1823 6.97656 34.5833 6.72266 33.8281 6.72266ZM49.2188 10.834C49.2188 12.4486 48.8477 13.7474 48.1055 14.7305C47.3633 15.707 46.3672 16.1953 45.1172 16.1953C43.7826 16.1953 42.7507 15.7233 42.0215 14.7793L41.9336 16H40.2734V1H42.0801V6.5957C42.8092 5.69076 43.8151 5.23828 45.0977 5.23828C46.3802 5.23828 47.3861 5.72331 48.1152 6.69336C48.8509 7.66341 49.2188 8.99154 49.2188 10.6777V10.834ZM47.4121 10.6289C47.4121 9.39844 47.1745 8.44792 46.6992 7.77734C46.224 7.10677 45.5404 6.77148 44.6484 6.77148C43.457 6.77148 42.6009 7.32487 42.0801 8.43164V13.002C42.6335 14.1087 43.4961 14.6621 44.668 14.6621C45.5339 14.6621 46.2077 14.3268 46.6895 13.6562C47.1712 12.9857 47.4121 11.9766 47.4121 10.6289ZM51.0254 10.6191C51.0254 9.58398 51.2272 8.65299 51.6309 7.82617C52.041 6.99935 52.6074 6.36133 53.3301 5.91211C54.0592 5.46289 54.8893 5.23828 55.8203 5.23828C57.2591 5.23828 58.4212 5.73633 59.3066 6.73242C60.1986 7.72852 60.6445 9.05339 60.6445 10.707V10.834C60.6445 11.8626 60.446 12.7871 60.0488 13.6074C59.6582 14.4212 59.0951 15.056 58.3594 15.5117C57.6302 15.9674 56.7904 16.1953 55.8398 16.1953C54.4076 16.1953 53.2454 15.6973 52.3535 14.7012C51.4681 13.7051 51.0254 12.3867 51.0254 10.7461V10.6191ZM52.8418 10.834C52.8418 12.0059 53.112 12.9466 53.6523 13.6562C54.1992 14.3659 54.9284 14.7207 55.8398 14.7207C56.7578 14.7207 57.487 14.3626 58.0273 13.6465C58.5677 12.9238 58.8379 11.9147 58.8379 10.6191C58.8379 9.46029 58.5612 8.52279 58.0078 7.80664C57.4609 7.08398 56.7318 6.72266 55.8203 6.72266C54.9284 6.72266 54.209 7.07747 53.6621 7.78711C53.1152 8.49674 52.8418 9.51237 52.8418 10.834ZM62.4316 10.6191C62.4316 9.58398 62.6335 8.65299 63.0371 7.82617C63.4473 6.99935 64.0137 6.36133 64.7363 5.91211C65.4655 5.46289 66.2956 5.23828 67.2266 5.23828C68.6654 5.23828 69.8275 5.73633 70.7129 6.73242C71.6048 7.72852 72.0508 9.05339 72.0508 10.707V10.834C72.0508 11.8626 71.8522 12.7871 71.4551 13.6074C71.0645 14.4212 70.5013 15.056 69.7656 15.5117C69.0365 15.9674 68.1966 16.1953 67.2461 16.1953C65.8138 16.1953 64.6517 15.6973 63.7598 14.7012C62.8743 13.7051 62.4316 12.3867 62.4316 10.7461V10.6191ZM64.248 10.834C64.248 12.0059 64.5182 12.9466 65.0586 13.6562C65.6055 14.3659 66.3346 14.7207 67.2461 14.7207C68.1641 14.7207 68.8932 14.3626 69.4336 13.6465C69.974 12.9238 70.2441 11.9147 70.2441 10.6191C70.2441 9.46029 69.9674 8.52279 69.4141 7.80664C68.8672 7.08398 68.138 6.72266 67.2266 6.72266C66.3346 6.72266 65.6152 7.07747 65.0684 7.78711C64.5215 8.49674 64.248 9.51237 64.248 10.834ZM77.2656 11.1074L76.1328 12.2891V16H74.3262V1H76.1328V10.0723L77.0996 8.91016L80.3906 5.43359H82.5879L78.4766 9.84766L83.0664 16H80.9473L77.2656 11.1074Z" fill="#1B1F2B"/>
</svg>
