<svg width="87" height="16" viewBox="0 0 87 16" fill="none" xmlns="http://www.w3.org/2000/svg">
<path d="M4.85352 12.5488L7.4707 4.43359H9.31641L5.52734 15H4.15039L0.322266 4.43359H2.16797L4.85352 12.5488ZM14.0039 10.1074L12.8711 11.2891V15H11.0645V0H12.8711V9.07227L13.8379 7.91016L17.1289 4.43359H19.3262L15.2148 8.84766L19.8047 15H17.6855L14.0039 10.1074ZM20.7129 9.61914C20.7129 8.58398 20.9147 7.65299 21.3184 6.82617C21.7285 5.99935 22.2949 5.36133 23.0176 4.91211C23.7467 4.46289 24.5768 4.23828 25.5078 4.23828C26.9466 4.23828 28.1087 4.73633 28.9941 5.73242C29.8861 6.72852 30.332 8.05339 30.332 9.70703V9.83398C30.332 10.8626 30.1335 11.7871 29.7363 12.6074C29.3457 13.4212 28.7826 14.056 28.0469 14.5117C27.3177 14.9674 26.4779 15.1953 25.5273 15.1953C24.0951 15.1953 22.9329 14.6973 22.041 13.7012C21.1556 12.7051 20.7129 11.3867 20.7129 9.74609V9.61914ZM22.5293 9.83398C22.5293 11.0059 22.7995 11.9466 23.3398 12.6562C23.8867 13.3659 24.6159 13.7207 25.5273 13.7207C26.4453 13.7207 27.1745 13.3626 27.7148 12.6465C28.2552 11.9238 28.5254 10.9147 28.5254 9.61914C28.5254 8.46029 28.2487 7.52279 27.6953 6.80664C27.1484 6.08398 26.4193 5.72266 25.5078 5.72266C24.6159 5.72266 23.8965 6.07747 23.3496 6.78711C22.8027 7.49674 22.5293 8.51237 22.5293 9.83398ZM34.3066 4.43359L34.3652 5.76172C35.1725 4.74609 36.2272 4.23828 37.5293 4.23828C39.7624 4.23828 40.8887 5.49805 40.9082 8.01758V15H39.1016V8.00781C39.0951 7.24609 38.9193 6.68294 38.5742 6.31836C38.2357 5.95378 37.7051 5.77148 36.9824 5.77148C36.3965 5.77148 35.8822 5.92773 35.4395 6.24023C34.9967 6.55273 34.6517 6.96289 34.4043 7.4707V15H32.5977V4.43359H34.3066ZM46.084 1.875V4.43359H48.0566V5.83008H46.084V12.3828C46.084 12.806 46.1719 13.125 46.3477 13.3398C46.5234 13.5482 46.8229 13.6523 47.2461 13.6523C47.4544 13.6523 47.7409 13.6133 48.1055 13.5352V15C47.6302 15.1302 47.168 15.1953 46.7188 15.1953C45.9115 15.1953 45.3027 14.9512 44.8926 14.4629C44.4824 13.9746 44.2773 13.2812 44.2773 12.3828V5.83008H42.3535V4.43359H44.2773V1.875H46.084ZM56.6992 15C56.5951 14.7917 56.5104 14.4206 56.4453 13.8867C55.6055 14.7591 54.6029 15.1953 53.4375 15.1953C52.3958 15.1953 51.5397 14.9023 50.8691 14.3164C50.2051 13.724 49.873 12.9753 49.873 12.0703C49.873 10.9701 50.2897 10.1172 51.123 9.51172C51.9629 8.89974 53.1413 8.59375 54.6582 8.59375H56.416V7.76367C56.416 7.13216 56.2272 6.63086 55.8496 6.25977C55.472 5.88216 54.9154 5.69336 54.1797 5.69336C53.5352 5.69336 52.9948 5.85612 52.5586 6.18164C52.1224 6.50716 51.9043 6.90104 51.9043 7.36328H50.0879C50.0879 6.83594 50.2734 6.32812 50.6445 5.83984C51.0221 5.34505 51.5299 4.95443 52.168 4.66797C52.8125 4.38151 53.5189 4.23828 54.2871 4.23828C55.5046 4.23828 56.4583 4.54427 57.1484 5.15625C57.8385 5.76172 58.1966 6.59831 58.2227 7.66602V12.5293C58.2227 13.4993 58.3464 14.2708 58.5938 14.8438V15H56.6992ZM53.7012 13.623C54.2676 13.623 54.8047 13.4766 55.3125 13.1836C55.8203 12.8906 56.1882 12.5098 56.416 12.041V9.87305H55C52.7865 9.87305 51.6797 10.5208 51.6797 11.8164C51.6797 12.3828 51.8685 12.8255 52.2461 13.1445C52.6237 13.4635 53.1087 13.623 53.7012 13.623ZM64.0039 10.1074L62.8711 11.2891V15H61.0645V0H62.8711V9.07227L63.8379 7.91016L67.1289 4.43359H69.3262L65.2148 8.84766L69.8047 15H67.6855L64.0039 10.1074ZM73.6426 1.875V4.43359H75.6152V5.83008H73.6426V12.3828C73.6426 12.806 73.7305 13.125 73.9062 13.3398C74.082 13.5482 74.3815 13.6523 74.8047 13.6523C75.013 13.6523 75.2995 13.6133 75.6641 13.5352V15C75.1888 15.1302 74.7266 15.1953 74.2773 15.1953C73.4701 15.1953 72.8613 14.9512 72.4512 14.4629C72.041 13.9746 71.8359 13.2812 71.8359 12.3828V5.83008H69.9121V4.43359H71.8359V1.875H73.6426ZM82.1191 15.1953C80.6868 15.1953 79.5215 14.7266 78.623 13.7891C77.7246 12.8451 77.2754 11.5853 77.2754 10.0098V9.67773C77.2754 8.62956 77.474 7.69531 77.8711 6.875C78.2747 6.04818 78.8346 5.40365 79.5508 4.94141C80.2734 4.47266 81.0547 4.23828 81.8945 4.23828C83.2682 4.23828 84.3359 4.69076 85.0977 5.5957C85.8594 6.50065 86.2402 7.79622 86.2402 9.48242V10.2344H79.082C79.1081 11.276 79.4108 12.1191 79.9902 12.7637C80.5762 13.4017 81.3184 13.7207 82.2168 13.7207C82.8548 13.7207 83.3952 13.5905 83.8379 13.3301C84.2806 13.0697 84.668 12.7246 85 12.2949L86.1035 13.1543C85.2181 14.515 83.89 15.1953 82.1191 15.1953ZM81.8945 5.72266C81.1654 5.72266 80.5534 5.98958 80.0586 6.52344C79.5638 7.05078 79.2578 7.79297 79.1406 8.75H84.4336V8.61328C84.3815 7.69531 84.1341 6.98568 83.6914 6.48438C83.2487 5.97656 82.6497 5.72266 81.8945 5.72266Z" fill="#1B1F2B"/>
</svg>
