<svg width="88" height="20" viewBox="0 0 88 20" fill="none" xmlns="http://www.w3.org/2000/svg">
<path d="M2.33008 15H0.523438V4.43359H2.33008V15ZM0.376953 1.63086C0.376953 1.33789 0.464844 1.09049 0.640625 0.888672C0.822917 0.686849 1.08984 0.585938 1.44141 0.585938C1.79297 0.585938 2.0599 0.686849 2.24219 0.888672C2.42448 1.09049 2.51562 1.33789 2.51562 1.63086C2.51562 1.92383 2.42448 2.16797 2.24219 2.36328C2.0599 2.55859 1.79297 2.65625 1.44141 2.65625C1.08984 2.65625 0.822917 2.55859 0.640625 2.36328C0.464844 2.16797 0.376953 1.92383 0.376953 1.63086ZM6.93945 4.43359L6.99805 5.76172C7.80534 4.74609 8.86003 4.23828 10.1621 4.23828C12.3952 4.23828 13.5215 5.49805 13.541 8.01758V15H11.7344V8.00781C11.7279 7.24609 11.5521 6.68294 11.207 6.31836C10.8685 5.95378 10.3379 5.77148 9.61523 5.77148C9.0293 5.77148 8.51497 5.92773 8.07227 6.24023C7.62956 6.55273 7.28451 6.96289 7.03711 7.4707V15H5.23047V4.43359H6.93945ZM22.418 12.1973C22.418 11.709 22.2324 11.3314 21.8613 11.0645C21.4967 10.791 20.8555 10.5566 19.9375 10.3613C19.026 10.166 18.3001 9.93164 17.7598 9.6582C17.2259 9.38477 16.8288 9.05924 16.5684 8.68164C16.3145 8.30404 16.1875 7.85482 16.1875 7.33398C16.1875 6.4681 16.5521 5.73568 17.2812 5.13672C18.0169 4.53776 18.9544 4.23828 20.0938 4.23828C21.2917 4.23828 22.2617 4.54753 23.0039 5.16602C23.7526 5.78451 24.127 6.57552 24.127 7.53906H22.3105C22.3105 7.04427 22.099 6.61784 21.6758 6.25977C21.2591 5.90169 20.7318 5.72266 20.0938 5.72266C19.4362 5.72266 18.9219 5.86589 18.5508 6.15234C18.1797 6.4388 17.9941 6.81315 17.9941 7.27539C17.9941 7.71159 18.1667 8.04036 18.5117 8.26172C18.8568 8.48307 19.4785 8.69466 20.377 8.89648C21.2819 9.09831 22.0143 9.33919 22.5742 9.61914C23.1341 9.89909 23.5475 10.2376 23.8145 10.6348C24.0879 11.0254 24.2246 11.5039 24.2246 12.0703C24.2246 13.0143 23.847 13.7728 23.0918 14.3457C22.3366 14.9121 21.3568 15.1953 20.1523 15.1953C19.306 15.1953 18.5573 15.0456 17.9062 14.7461C17.2552 14.4466 16.7441 14.0299 16.373 13.4961C16.0085 12.9557 15.8262 12.373 15.8262 11.748H17.6328C17.6654 12.3535 17.9062 12.8353 18.3555 13.1934C18.8112 13.5449 19.4102 13.7207 20.1523 13.7207C20.8359 13.7207 21.3828 13.584 21.793 13.3105C22.2096 13.0306 22.418 12.6595 22.418 12.1973ZM29.0293 1.875V4.43359H31.002V5.83008H29.0293V12.3828C29.0293 12.806 29.1172 13.125 29.293 13.3398C29.4688 13.5482 29.7682 13.6523 30.1914 13.6523C30.3997 13.6523 30.6862 13.6133 31.0508 13.5352V15C30.5755 15.1302 30.1133 15.1953 29.6641 15.1953C28.8568 15.1953 28.248 14.9512 27.8379 14.4629C27.4277 13.9746 27.2227 13.2812 27.2227 12.3828V5.83008H25.2988V4.43359H27.2227V1.875H29.0293ZM39.6445 15C39.5404 14.7917 39.4557 14.4206 39.3906 13.8867C38.5508 14.7591 37.5482 15.1953 36.3828 15.1953C35.3411 15.1953 34.485 14.9023 33.8145 14.3164C33.1504 13.724 32.8184 12.9753 32.8184 12.0703C32.8184 10.9701 33.235 10.1172 34.0684 9.51172C34.9082 8.89974 36.0866 8.59375 37.6035 8.59375H39.3613V7.76367C39.3613 7.13216 39.1725 6.63086 38.7949 6.25977C38.4173 5.88216 37.8607 5.69336 37.125 5.69336C36.4805 5.69336 35.9401 5.85612 35.5039 6.18164C35.0677 6.50716 34.8496 6.90104 34.8496 7.36328H33.0332C33.0332 6.83594 33.2188 6.32812 33.5898 5.83984C33.9674 5.34505 34.4753 4.95443 35.1133 4.66797C35.7578 4.38151 36.4642 4.23828 37.2324 4.23828C38.4499 4.23828 39.4036 4.54427 40.0938 5.15625C40.7839 5.76172 41.1419 6.59831 41.168 7.66602V12.5293C41.168 13.4993 41.2917 14.2708 41.5391 14.8438V15H39.6445ZM36.6465 13.623C37.2129 13.623 37.75 13.4766 38.2578 13.1836C38.7656 12.8906 39.1335 12.5098 39.3613 12.041V9.87305H37.9453C35.7318 9.87305 34.625 10.5208 34.625 11.8164C34.625 12.3828 34.8138 12.8255 35.1914 13.1445C35.569 13.4635 36.054 13.623 36.6465 13.623ZM43.5703 9.62891C43.5703 7.98177 43.9512 6.67318 44.7129 5.70312C45.4746 4.72656 46.4837 4.23828 47.7402 4.23828C49.0293 4.23828 50.0352 4.69401 50.7578 5.60547L50.8457 4.43359H52.4961V14.7461C52.4961 16.1133 52.0892 17.1908 51.2754 17.9785C50.4681 18.7663 49.3809 19.1602 48.0137 19.1602C47.252 19.1602 46.5065 18.9974 45.7773 18.6719C45.0482 18.3464 44.4915 17.9004 44.1074 17.334L45.0449 16.25C45.8197 17.207 46.7669 17.6855 47.8867 17.6855C48.7656 17.6855 49.4492 17.4382 49.9375 16.9434C50.4323 16.4486 50.6797 15.752 50.6797 14.8535V13.9453C49.957 14.7786 48.9707 15.1953 47.7207 15.1953C46.4837 15.1953 45.4811 14.6973 44.7129 13.7012C43.9512 12.7051 43.5703 11.3477 43.5703 9.62891ZM45.3867 9.83398C45.3867 11.0254 45.6309 11.9629 46.1191 12.6465C46.6074 13.3236 47.291 13.6621 48.1699 13.6621C49.3092 13.6621 50.1458 13.1445 50.6797 12.1094V7.28516C50.1263 6.27604 49.2962 5.77148 48.1895 5.77148C47.3105 5.77148 46.6237 6.11328 46.1289 6.79688C45.6341 7.48047 45.3867 8.49284 45.3867 9.83398ZM60.3379 6.05469C60.0645 6.00911 59.7682 5.98633 59.4492 5.98633C58.2643 5.98633 57.4603 6.49089 57.0371 7.5V15H55.2305V4.43359H56.9883L57.0176 5.6543C57.61 4.71029 58.4499 4.23828 59.5371 4.23828C59.8887 4.23828 60.1556 4.28385 60.3379 4.375V6.05469ZM68.1406 15C68.0365 14.7917 67.9518 14.4206 67.8867 13.8867C67.0469 14.7591 66.0443 15.1953 64.8789 15.1953C63.8372 15.1953 62.9811 14.9023 62.3105 14.3164C61.6465 13.724 61.3145 12.9753 61.3145 12.0703C61.3145 10.9701 61.7311 10.1172 62.5645 9.51172C63.4043 8.89974 64.5827 8.59375 66.0996 8.59375H67.8574V7.76367C67.8574 7.13216 67.6686 6.63086 67.291 6.25977C66.9134 5.88216 66.3568 5.69336 65.6211 5.69336C64.9766 5.69336 64.4362 5.85612 64 6.18164C63.5638 6.50716 63.3457 6.90104 63.3457 7.36328H61.5293C61.5293 6.83594 61.7148 6.32812 62.0859 5.83984C62.4635 5.34505 62.9714 4.95443 63.6094 4.66797C64.2539 4.38151 64.9603 4.23828 65.7285 4.23828C66.946 4.23828 67.8997 4.54427 68.5898 5.15625C69.2799 5.76172 69.638 6.59831 69.6641 7.66602V12.5293C69.6641 13.4993 69.7878 14.2708 70.0352 14.8438V15H68.1406ZM65.1426 13.623C65.709 13.623 66.2461 13.4766 66.7539 13.1836C67.2617 12.8906 67.6296 12.5098 67.8574 12.041V9.87305H66.4414C64.2279 9.87305 63.1211 10.5208 63.1211 11.8164C63.1211 12.3828 63.3099 12.8255 63.6875 13.1445C64.0651 13.4635 64.5501 13.623 65.1426 13.623ZM74.1953 4.43359L74.2441 5.60547C75.0189 4.69401 76.0638 4.23828 77.3789 4.23828C78.8568 4.23828 79.8626 4.80469 80.3965 5.9375C80.748 5.42969 81.2038 5.01953 81.7637 4.70703C82.3301 4.39453 82.9974 4.23828 83.7656 4.23828C86.0833 4.23828 87.2617 5.46549 87.3008 7.91992V15H85.4941V8.02734C85.4941 7.27214 85.3216 6.70898 84.9766 6.33789C84.6315 5.96029 84.0521 5.77148 83.2383 5.77148C82.5677 5.77148 82.0111 5.97331 81.5684 6.37695C81.1257 6.77409 80.8685 7.3112 80.7969 7.98828V15H78.9805V8.07617C78.9805 6.53971 78.2285 5.77148 76.7246 5.77148C75.5397 5.77148 74.7292 6.27604 74.293 7.28516V15H72.4863V4.43359H74.1953Z" fill="white"/>
</svg>
