<svg width="77" height="16" viewBox="0 0 77 16" fill="none" xmlns="http://www.w3.org/2000/svg">
<path d="M5.98633 7.91992L9.69727 0.78125H11.8262L6.92383 9.69727V15H5.04883V9.69727L0.146484 0.78125H2.29492L5.98633 7.91992ZM12.2559 9.61914C12.2559 8.58398 12.4577 7.65299 12.8613 6.82617C13.2715 5.99935 13.8379 5.36133 14.5605 4.91211C15.2897 4.46289 16.1198 4.23828 17.0508 4.23828C18.4896 4.23828 19.6517 4.73633 20.5371 5.73242C21.429 6.72852 21.875 8.05339 21.875 9.70703V9.83398C21.875 10.8626 21.6764 11.7871 21.2793 12.6074C20.8887 13.4212 20.3255 14.056 19.5898 14.5117C18.8607 14.9674 18.0208 15.1953 17.0703 15.1953C15.638 15.1953 14.4759 14.6973 13.584 13.7012C12.6986 12.7051 12.2559 11.3867 12.2559 9.74609V9.61914ZM14.0723 9.83398C14.0723 11.0059 14.3424 11.9466 14.8828 12.6562C15.4297 13.3659 16.1589 13.7207 17.0703 13.7207C17.9883 13.7207 18.7174 13.3626 19.2578 12.6465C19.7982 11.9238 20.0684 10.9147 20.0684 9.61914C20.0684 8.46029 19.7917 7.52279 19.2383 6.80664C18.6914 6.08398 17.9622 5.72266 17.0508 5.72266C16.1589 5.72266 15.4395 6.07747 14.8926 6.78711C14.3457 7.49674 14.0723 8.51237 14.0723 9.83398ZM30.6641 13.9551C29.9609 14.7819 28.929 15.1953 27.5684 15.1953C26.4421 15.1953 25.5827 14.8698 24.9902 14.2188C24.4043 13.5612 24.1081 12.5911 24.1016 11.3086V4.43359H25.9082V11.2598C25.9082 12.8613 26.5592 13.6621 27.8613 13.6621C29.2415 13.6621 30.1595 13.1478 30.6152 12.1191V4.43359H32.4219V15H30.7031L30.6641 13.9551ZM45.2832 2.32422H40.7129V15H38.8477V2.32422H34.2871V0.78125H45.2832V2.32422ZM52.6953 13.9551C51.9922 14.7819 50.9603 15.1953 49.5996 15.1953C48.4733 15.1953 47.6139 14.8698 47.0215 14.2188C46.4355 13.5612 46.1393 12.5911 46.1328 11.3086V4.43359H47.9395V11.2598C47.9395 12.8613 48.5905 13.6621 49.8926 13.6621C51.2728 13.6621 52.1908 13.1478 52.6465 12.1191V4.43359H54.4531V15H52.7344L52.6953 13.9551ZM66.1523 9.83398C66.1523 11.4486 65.7812 12.7474 65.0391 13.7305C64.2969 14.707 63.3008 15.1953 62.0508 15.1953C60.7161 15.1953 59.6842 14.7233 58.9551 13.7793L58.8672 15H57.207V0H59.0137V5.5957C59.7428 4.69076 60.7487 4.23828 62.0312 4.23828C63.3138 4.23828 64.3197 4.72331 65.0488 5.69336C65.7845 6.66341 66.1523 7.99154 66.1523 9.67773V9.83398ZM64.3457 9.62891C64.3457 8.39844 64.1081 7.44792 63.6328 6.77734C63.1576 6.10677 62.474 5.77148 61.582 5.77148C60.3906 5.77148 59.5345 6.32487 59.0137 7.43164V12.002C59.5671 13.1087 60.4297 13.6621 61.6016 13.6621C62.4674 13.6621 63.1413 13.3268 63.623 12.6562C64.1048 11.9857 64.3457 10.9766 64.3457 9.62891ZM72.8223 15.1953C71.39 15.1953 70.2246 14.7266 69.3262 13.7891C68.4277 12.8451 67.9785 11.5853 67.9785 10.0098V9.67773C67.9785 8.62956 68.1771 7.69531 68.5742 6.875C68.9779 6.04818 69.5378 5.40365 70.2539 4.94141C70.9766 4.47266 71.7578 4.23828 72.5977 4.23828C73.9714 4.23828 75.0391 4.69076 75.8008 5.5957C76.5625 6.50065 76.9434 7.79622 76.9434 9.48242V10.2344H69.7852C69.8112 11.276 70.1139 12.1191 70.6934 12.7637C71.2793 13.4017 72.0215 13.7207 72.9199 13.7207C73.5579 13.7207 74.0983 13.5905 74.541 13.3301C74.9837 13.0697 75.3711 12.7246 75.7031 12.2949L76.8066 13.1543C75.9212 14.515 74.5931 15.1953 72.8223 15.1953ZM72.5977 5.72266C71.8685 5.72266 71.2565 5.98958 70.7617 6.52344C70.2669 7.05078 69.9609 7.79297 69.8438 8.75H75.1367V8.61328C75.0846 7.69531 74.8372 6.98568 74.3945 6.48438C73.9518 5.97656 73.3529 5.72266 72.5977 5.72266Z" fill="white"/>
</svg>
