<svg width="97" height="16" viewBox="0 0 97 16" fill="none" xmlns="http://www.w3.org/2000/svg">
<path d="M0.650391 15V0.78125H5.29883C6.8418 0.78125 8.00065 1.10026 8.77539 1.73828C9.55664 2.3763 9.94727 3.32031 9.94727 4.57031C9.94727 5.23438 9.75846 5.82357 9.38086 6.33789C9.00326 6.8457 8.48893 7.23958 7.83789 7.51953C8.60612 7.73438 9.21159 8.14453 9.6543 8.75C10.1035 9.34896 10.3281 10.0651 10.3281 10.8984C10.3281 12.1745 9.91471 13.1771 9.08789 13.9062C8.26107 14.6354 7.09245 15 5.58203 15H0.650391ZM2.52539 8.34961V13.4668H5.62109C6.49349 13.4668 7.18034 13.2422 7.68164 12.793C8.18945 12.3372 8.44336 11.7122 8.44336 10.918C8.44336 9.20573 7.51237 8.34961 5.65039 8.34961H2.52539ZM2.52539 6.8457H5.35742C6.17773 6.8457 6.83203 6.64062 7.32031 6.23047C7.8151 5.82031 8.0625 5.26367 8.0625 4.56055C8.0625 3.7793 7.83464 3.21289 7.37891 2.86133C6.92318 2.50326 6.22982 2.32422 5.29883 2.32422H2.52539V6.8457ZM16.8027 8.61328H15.0742V15H13.1992V0.78125H15.0742V7.05078H16.5391L21.5098 0.78125H23.8438L18.4141 7.67578L24.2441 15H21.9492L16.8027 8.61328ZM24.9277 9.61914C24.9277 8.58398 25.1296 7.65299 25.5332 6.82617C25.9434 5.99935 26.5098 5.36133 27.2324 4.91211C27.9616 4.46289 28.7917 4.23828 29.7227 4.23828C31.1615 4.23828 32.3236 4.73633 33.209 5.73242C34.1009 6.72852 34.5469 8.05339 34.5469 9.70703V9.83398C34.5469 10.8626 34.3483 11.7871 33.9512 12.6074C33.5605 13.4212 32.9974 14.056 32.2617 14.5117C31.5326 14.9674 30.6927 15.1953 29.7422 15.1953C28.3099 15.1953 27.1478 14.6973 26.2559 13.7012C25.3704 12.7051 24.9277 11.3867 24.9277 9.74609V9.61914ZM26.7441 9.83398C26.7441 11.0059 27.0143 11.9466 27.5547 12.6562C28.1016 13.3659 28.8307 13.7207 29.7422 13.7207C30.6602 13.7207 31.3893 13.3626 31.9297 12.6465C32.4701 11.9238 32.7402 10.9147 32.7402 9.61914C32.7402 8.46029 32.4635 7.52279 31.9102 6.80664C31.3633 6.08398 30.6341 5.72266 29.7227 5.72266C28.8307 5.72266 28.1113 6.07747 27.5645 6.78711C27.0176 7.49674 26.7441 8.51237 26.7441 9.83398ZM45.4453 15H43.6387V10.4883H38.7852V15H36.9688V4.43359H38.7852V9.01367H43.6387V4.43359H45.4453V15ZM56.207 5.89844H52.6621V15H50.8555V5.89844H47.3789V4.43359H56.207V5.89844ZM64.332 15C64.2279 14.7917 64.1432 14.4206 64.0781 13.8867C63.2383 14.7591 62.2357 15.1953 61.0703 15.1953C60.0286 15.1953 59.1725 14.9023 58.502 14.3164C57.8379 13.724 57.5059 12.9753 57.5059 12.0703C57.5059 10.9701 57.9225 10.1172 58.7559 9.51172C59.5957 8.89974 60.7741 8.59375 62.291 8.59375H64.0488V7.76367C64.0488 7.13216 63.86 6.63086 63.4824 6.25977C63.1048 5.88216 62.5482 5.69336 61.8125 5.69336C61.168 5.69336 60.6276 5.85612 60.1914 6.18164C59.7552 6.50716 59.5371 6.90104 59.5371 7.36328H57.7207C57.7207 6.83594 57.9062 6.32812 58.2773 5.83984C58.6549 5.34505 59.1628 4.95443 59.8008 4.66797C60.4453 4.38151 61.1517 4.23828 61.9199 4.23828C63.1374 4.23828 64.0911 4.54427 64.7812 5.15625C65.4714 5.76172 65.8294 6.59831 65.8555 7.66602V12.5293C65.8555 13.4993 65.9792 14.2708 66.2266 14.8438V15H64.332ZM61.334 13.623C61.9004 13.623 62.4375 13.4766 62.9453 13.1836C63.4531 12.8906 63.821 12.5098 64.0488 12.041V9.87305H62.6328C60.4193 9.87305 59.3125 10.5208 59.3125 11.8164C59.3125 12.3828 59.5013 12.8255 59.8789 13.1445C60.2565 13.4635 60.7415 13.623 61.334 13.623ZM71.9785 10.498H70.6602V15H68.8438V4.43359H70.6602V8.90625H71.8418L75.3965 4.43359H77.584L73.4043 9.51172L77.9355 15H75.6406L71.9785 10.498ZM87.3398 5.89844H83.7949V15H81.9883V5.89844H78.5117V4.43359H87.3398V5.89844ZM92.7012 15.1953C91.2689 15.1953 90.1035 14.7266 89.2051 13.7891C88.3066 12.8451 87.8574 11.5853 87.8574 10.0098V9.67773C87.8574 8.62956 88.056 7.69531 88.4531 6.875C88.8568 6.04818 89.4167 5.40365 90.1328 4.94141C90.8555 4.47266 91.6367 4.23828 92.4766 4.23828C93.8503 4.23828 94.918 4.69076 95.6797 5.5957C96.4414 6.50065 96.8223 7.79622 96.8223 9.48242V10.2344H89.6641C89.6901 11.276 89.9928 12.1191 90.5723 12.7637C91.1582 13.4017 91.9004 13.7207 92.7988 13.7207C93.4368 13.7207 93.9772 13.5905 94.4199 13.3301C94.8626 13.0697 95.25 12.7246 95.582 12.2949L96.6855 13.1543C95.8001 14.515 94.472 15.1953 92.7012 15.1953ZM92.4766 5.72266C91.7474 5.72266 91.1354 5.98958 90.6406 6.52344C90.1458 7.05078 89.8398 7.79297 89.7227 8.75H95.0156V8.61328C94.9635 7.69531 94.7161 6.98568 94.2734 6.48438C93.8307 5.97656 93.2318 5.72266 92.4766 5.72266Z" fill="white"/>
</svg>
